<?xml version="1.0" encoding="UTF-8"?>
<svg version="1.1" xmlns="http://www.w3.org/2000/svg" width="1200" height="630">
<path d="M0 0 C396 0 792 0 1200 0 C1200 207.9 1200 415.8 1200 630 C804 630 408 630 0 630 C0 422.1 0 214.2 0 0 Z " fill="#141414" transform="translate(0,0)"/>
<path d="M0 0 C2.08029186 -0.00216898 4.16003736 -0.02030152 6.24023438 -0.03930664 C23.41369465 -0.11376232 39.26251486 2.82433489 51.98242188 15.18530273 C63.98862283 27.5674317 65.47249115 42.84873704 65.25585938 59.22045898 C64.78889243 73.79583808 60.42585437 86.33646584 49.66992188 96.56030273 C33.21150724 110.15517563 11.29418731 110.15029588 -9.01757812 109.18530273 C-23.54941074 107.74591362 -38.00845619 101.87715894 -47.45117188 90.46264648 C-57.22871706 76.24741246 -59.1216091 57.76740626 -56.70117188 40.99243164 C-53.9732548 27.60113968 -47.19540849 16.1212096 -35.83007812 8.43530273 C-24.41110861 1.53667012 -13.05620726 -0.00152099 0 0 Z " fill="#FDFDFD" transform="translate(501.017578125,261.814697265625)"/>
<path d="M0 0 C1.03729752 0.00031723 1.03729752 0.00031723 2.09555054 0.00064087 C12.53820328 0.03259411 22.14825175 0.59828945 32 4.375 C32.92941406 4.725625 33.85882812 5.07625 34.81640625 5.4375 C44.50180653 9.69611875 52.37623132 17.53764921 58 26.375 C62 37.375 62 37.375 62 67.375 C23.885 67.87 23.885 67.87 -15 68.375 C-11.184147 75.58236921 -11.184147 75.58236921 -5.4375 78.8125 C-4.32181641 79.24369141 -4.32181641 79.24369141 -3.18359375 79.68359375 C-2.46300781 79.91175781 -1.74242187 80.13992188 -1 80.375 C-0.45351807 80.551521 0.09296387 80.72804199 0.65600586 80.90991211 C3.99250533 81.57192976 7.30039896 81.51746222 10.6875 81.5078125 C11.42701904 81.50876923 12.16653809 81.50972595 12.9284668 81.51071167 C14.48844488 81.51139067 16.04842582 81.50955592 17.60839844 81.50537109 C19.99160122 81.50001886 22.37461555 81.50532553 24.7578125 81.51171875 C26.27604208 81.51105792 27.79427155 81.50977665 29.3125 81.5078125 C30.02301514 81.50983673 30.73353027 81.51186096 31.46557617 81.51394653 C34.83269369 81.49804569 37.7541037 81.19052335 41 80.375 C43.31 80.375 45.62 80.375 48 80.375 C48 88.625 48 96.875 48 105.375 C37.5135689 107.91382016 27.71072624 109.51099516 16.93359375 109.61328125 C16.09643326 109.621353 15.25927277 109.62942474 14.39674377 109.63774109 C12.63455204 109.65147612 10.87233488 109.6622448 9.11010742 109.67016602 C7.34082005 109.68164125 5.57156607 109.70202182 3.80249023 109.73168945 C-14.20692346 110.0324344 -29.10363418 107.61094557 -44.25 97.125 C-56.27150167 85.10349833 -60.09517741 70.06267803 -60.3125 53.4375 C-60.23084967 39.65655681 -56.46770479 25.26988011 -46.8125 14.9609375 C-39.8311968 8.8522972 -31.84474319 4.97784632 -23 2.375 C-21.31970703 1.83939453 -21.31970703 1.83939453 -19.60546875 1.29296875 C-13.19375139 -0.26757499 -6.5597939 -0.01836552 0 0 Z " fill="#FDFDFD" transform="translate(870,261.625)"/>
<path d="M0 0 C1.00562988 -0.0100708 2.01125977 -0.0201416 3.04736328 -0.03051758 C13.27247049 0.08806608 22.27910437 2.11120235 29.75 9.4375 C39.52596173 20.6100277 39.17926349 34.45994102 39.04296875 48.453125 C39.03736067 50.16232935 39.03309631 51.87153858 39.03010559 53.58074951 C39.01875211 58.0392227 38.98936893 62.49739406 38.95599365 66.95574951 C38.91963398 72.32654078 38.9060863 77.69743401 38.88863373 83.0683136 C38.85972411 91.19158446 38.80217156 99.31419549 38.75 107.4375 C25.22 107.4375 11.69 107.4375 -2.25 107.4375 C-2.28738281 102.67054688 -2.32476563 97.90359375 -2.36328125 92.9921875 C-2.39356949 89.96611018 -2.42472279 86.94009107 -2.45898438 83.9140625 C-2.513243 79.11461367 -2.5643554 74.31528 -2.59643555 69.515625 C-2.62251025 65.64452626 -2.6629415 61.77381573 -2.71318626 57.90295792 C-2.72982694 56.42869025 -2.74135864 54.95435548 -2.74761391 53.48000717 C-2.757286 51.40927515 -2.7853794 49.33953 -2.81762695 47.26904297 C-2.82873001 46.09211884 -2.83983307 44.9151947 -2.85127258 43.7026062 C-3.2992876 40.03389283 -4.3645117 37.5982559 -6.25 34.4375 C-10.92924232 30.91789599 -17.72519909 31.88436141 -23.25 32.4375 C-27.18555522 33.71129803 -30.29836357 35.48586357 -33.25 38.4375 C-33.58302936 41.43259062 -33.58302936 41.43259062 -33.56884766 44.99853516 C-33.58391609 46.00846779 -33.58391609 46.00846779 -33.59928894 47.0388031 C-33.63022182 49.26804741 -33.64718368 51.49717109 -33.6640625 53.7265625 C-33.68276607 55.27071172 -33.70233887 56.81485065 -33.7227478 58.35897827 C-33.7741609 62.42612645 -33.81373727 66.4933078 -33.85089111 70.56060791 C-33.8979012 75.4390653 -33.95953816 80.31735694 -34.01873779 85.19567871 C-34.10706192 92.60955257 -34.17674569 100.02339288 -34.25 107.4375 C-47.78 107.4375 -61.31 107.4375 -75.25 107.4375 C-75.25 72.7875 -75.25 38.1375 -75.25 2.4375 C-62.38 2.4375 -49.51 2.4375 -36.25 2.4375 C-36.25 4.7475 -36.25 7.0575 -36.25 9.4375 C-35.69054687 9.12296875 -35.13109375 8.8084375 -34.5546875 8.484375 C-23.12360971 2.3828994 -12.85025236 0.08354532 0 0 Z " fill="#FDFDFD" transform="translate(651.25,261.5625)"/>
<path d="M0 0 C14.19 0 28.38 0 43 0 C45.40914285 6.02285713 47.6109032 11.63601974 49.3125 17.8125 C51.98345367 27.18911604 55.07971514 36.4109494 58.20410156 45.64453125 C59.29190496 48.86389542 60.36518354 52.08794553 61.4375 55.3125 C61.74558594 56.23675781 62.05367187 57.16101563 62.37109375 58.11328125 C62.57863281 58.73589844 62.78617188 59.35851562 63 60 C63.29132812 58.98164063 63.58265625 57.96328125 63.8828125 56.9140625 C66.77070228 46.90924566 69.92499467 37.02047806 73.26806641 27.15917969 C74.4151827 23.77522489 75.55261367 20.3880722 76.6875 17 C77.06261719 15.88625 77.43773437 14.7725 77.82421875 13.625 C79.28979025 9.1065603 80.63504621 4.54984596 82 0 C96.19 0 110.38 0 125 0 C121.63017389 11.23275369 121.63017389 11.23275369 119.63671875 16.19140625 C119.17241455 17.35639648 118.70811035 18.52138672 118.22973633 19.72167969 C117.98011139 20.34312866 117.73048645 20.96457764 117.47329712 21.6048584 C116.05224817 25.14509096 114.64712933 28.69163176 113.2421875 32.23828125 C112.92468033 33.03946381 112.60717316 33.84064636 112.28004456 34.66610718 C107.20863702 47.49520964 102.27191901 60.37729572 97.3125 73.25 C96.81261593 74.54737501 96.31272785 75.84474847 95.81283569 77.14212036 C95.56834686 77.77666295 95.32385803 78.41120554 95.07196045 79.06497669 C94.35364077 80.92922827 93.63524093 82.79344895 92.9168396 84.65766907 C92.02705995 86.96699541 91.13765691 89.2764669 90.24868774 91.58610535 C89.84991425 92.62148941 89.45114075 93.65687347 89.0402832 94.72363281 C88.69310745 95.62559387 88.3459317 96.52755493 87.98823547 97.45684814 C87.0086623 99.9777082 86.00442463 102.48893843 85 105 C70.48 105 55.96 105 41 105 C37.82951733 97.3908416 34.69847177 89.78822072 31.69921875 82.11328125 C31.30521378 81.10809952 30.9112088 80.10291779 30.50526428 79.067276 C29.23134881 75.81620204 27.9593316 72.56438969 26.6875 69.3125 C25.80312682 67.05352198 24.91868595 64.79457045 24.03417969 62.53564453 C22.23529575 57.94060667 20.43736007 53.34519932 18.64013672 48.74951172 C16.52915017 43.35173931 14.41565962 37.95495266 12.30110168 32.55857849 C10.80132675 28.7302195 9.30307276 24.90126683 7.80532837 21.07211304 C7.10287347 19.27684218 6.39989248 17.48177709 5.69638062 15.68692017 C4.72826263 13.21638763 3.76227033 10.74503497 2.796875 8.2734375 C2.51038589 7.54367203 2.22389679 6.81390656 1.9287262 6.06202698 C0 1.11427356 0 1.11427356 0 0 Z " fill="#FDFDFD" transform="translate(690,264)"/>
<path d="M0 0 C1.155 -0.01224609 2.31 -0.02449219 3.5 -0.03710938 C13.17096547 -0.05348234 22.0844148 1.06985632 31.25 4.25 C32.25289063 4.59160156 33.25578125 4.93320312 34.2890625 5.28515625 C36.625 6.1875 36.625 6.1875 37.625 7.1875 C37.71275605 9.33308827 37.73195219 11.48154421 37.72265625 13.62890625 C37.71782227 15.58666992 37.71782227 15.58666992 37.71289062 17.58398438 C37.70453401 18.9726569 37.69606905 20.36132877 37.6875 21.75 C37.68248666 23.14257656 37.67792347 24.53515481 37.67382812 25.92773438 C37.66199434 29.3476987 37.6455088 32.76757844 37.625 36.1875 C36.96983398 35.98471436 36.31466797 35.78192871 35.63964844 35.57299805 C20.85259467 31.05503375 2.6583375 27.46651018 -11.75 34.9375 C-15.73685854 38.35480732 -18.4381811 41.9908065 -19.375 47.1875 C-20.26825263 59.83825756 -20.26825263 59.83825756 -15.375 71.1875 C-10.39874722 76.60283391 -3.44800641 78.08279312 3.66796875 78.4765625 C12.14805127 78.73480526 19.55502272 77.93785691 27.625 75.1875 C30.925 74.1975 34.225 73.2075 37.625 72.1875 C37.625 82.0875 37.625 91.9875 37.625 102.1875 C24.14883282 107.80256966 15.1320579 109.56217113 0.9375 109.5 C0.27236389 109.49784485 -0.39277222 109.4956897 -1.07806396 109.49346924 C-19.63498888 109.39679822 -35.30106069 106.86524783 -49.1875 93.53515625 C-61.78658353 80.01363982 -62.95209271 64.10421142 -62.71484375 46.4375 C-62.30013172 34.91504459 -58.37898941 25.56414478 -50.375 17.1875 C-49.71757812 16.49011719 -49.06015625 15.79273438 -48.3828125 15.07421875 C-34.82903154 1.89279441 -17.91881166 0.00993282 0 0 Z " fill="#FCFCFC" transform="translate(397.375,261.8125)"/>
<path d="M0 0 C42.62586327 -3.28812874 42.62586327 -3.28812874 50.54296875 3.4921875 C53.67050829 7.3450572 55.69633914 11.68688151 57.65478516 16.22412109 C60.04892237 21.16447321 63.57765773 25.23925738 67 29.5 C68.35954333 31.2667088 69.71375871 33.03753099 71.0625 34.8125 C72.0525 36.111875 72.0525 36.111875 73.0625 37.4375 C76.66299297 42.19944231 80.18343568 47.01985055 83.7109375 51.8359375 C88.07277332 57.77671841 92.52071939 63.64739558 97 69.5 C102.30710039 76.43772693 107.56545762 83.40761203 112.75 90.4375 C113.32234375 91.21222656 113.8946875 91.98695313 114.484375 92.78515625 C115.020625 93.51476562 115.556875 94.244375 116.109375 94.99609375 C116.57311523 95.62700928 117.03685547 96.2579248 117.51464844 96.90795898 C119.40234373 99.56668037 121.20087632 102.28079307 123 105 C82.99813886 108.09562401 82.99813886 108.09562401 73.51171875 103.19970703 C68.80758943 98.96436479 66.14935417 93.96971844 63.90136719 88.11132812 C62.7726239 85.4674029 61.22765104 83.79421668 59 82 C58.75894531 82.63292969 58.51789062 83.26585937 58.26953125 83.91796875 C57.85058594 84.93503906 57.43164062 85.95210938 57 87 C56.75169434 87.69303223 56.50338867 88.38606445 56.24755859 89.10009766 C53.47681767 96.07896545 49.8917284 101.65441612 43 105 C28.56201786 108.02058027 12.59211546 106.06638195 -2 105 C4.21634022 95.56753378 4.21634022 95.56753378 7.59375 91.1953125 C8.22514893 90.37353516 8.85654785 89.55175781 9.50708008 88.70507812 C10.16474365 87.85365234 10.82240723 87.00222656 11.5 86.125 C16.99570904 78.95896987 22.44811474 71.76498355 27.8125 64.5 C28.39257812 63.7177002 28.97265625 62.93540039 29.5703125 62.12939453 C30.11042969 61.39575684 30.65054688 60.66211914 31.20703125 59.90625 C31.6760083 59.27009766 32.14498535 58.63394531 32.62817383 57.97851562 C34.19834524 55.71393667 35.60436517 53.37532986 37 51 C36.58862793 50.46334717 36.17725586 49.92669434 35.75341797 49.3737793 C27.66579871 38.81413336 19.62532598 28.22653648 11.78271484 17.4831543 C8.39473654 12.85119312 4.90910733 8.32301194 1.30493164 3.85644531 C0 2 0 2 0 0 Z " fill="#FDFDFD" transform="translate(927,264)"/>
<path d="M0 0 C0.79245117 0.00829834 1.58490234 0.01659668 2.40136719 0.02514648 C17.56946553 0.45394283 33.02000789 6.69742353 44.2421875 16.95703125 C45.5 18.4375 45.5 18.4375 45.5 20.4375 C44.60539062 20.54707031 43.71078125 20.65664063 42.7890625 20.76953125 C25.93022746 22.98023137 12.36287298 27.99172319 -0.5 39.4375 C-1.54800781 40.34435547 -1.54800781 40.34435547 -2.6171875 41.26953125 C-16.20606346 53.82734464 -22.32561361 71.94811112 -23.7890625 90.00390625 C-24.28539113 103.15661498 -20.72413835 115.08090839 -16.5 127.4375 C-30.57290568 119.34557923 -38.93874566 102.5002469 -43.5 87.4375 C-48.7312457 66.53062623 -45.48915216 45.35642708 -35.5 26.4375 C-33.37501399 22.91122169 -31.0659749 19.6539197 -28.5 16.4375 C-28.00757813 15.79425781 -27.51515625 15.15101563 -27.0078125 14.48828125 C-20.00318567 5.76089485 -11.36453751 -0.15426424 0 0 Z " fill="#8B2574" transform="translate(195.5,248.5625)"/>
<path d="M0 0 C2.69536166 2.59034757 4.95188815 5.21419551 7.125 8.25 C17.26304306 21.31823694 34.59112588 30.90907701 51 33 C72.79663793 34.65106399 93.82531171 29.55837113 110.8125 15.125 C114.56451699 11.63951974 117.67255489 7.81909145 120.6875 3.6875 C121.120625 3.130625 121.55375 2.57375 122 2 C122.33 2 122.66 2 123 2 C121.76684184 20.80566194 111.28516915 36.89933769 97.4375 49.1875 C79.69852963 63.45135838 58.4372678 68.59839391 36 67 C25.39461914 65.4103532 15.37252966 62.14070397 8.765625 53.359375 C1.63066251 42.87714615 -2.37663216 30.10217464 -2.1875 17.5 C-2.18685547 16.68402344 -2.18621094 15.86804688 -2.18554688 15.02734375 C-2.09211424 2.09211424 -2.09211424 2.09211424 0 0 Z " fill="#F0AD1B" transform="translate(179,326)"/>
<path d="M0 0 C0.91265625 0.41894531 1.8253125 0.83789062 2.765625 1.26953125 C10.75572915 5.23034002 16.75047099 10.7594502 23 17 C23.6703125 17.65871094 24.340625 18.31742187 25.03125 18.99609375 C35.44820627 30.00492254 42.93795292 46.04664906 43.6875 61.1875 C43.13234484 74.16059963 34.737755 84.61628139 25.62109375 93.25390625 C17.8898218 99.79384255 8.91321364 104.7469969 -1 107 C1 102 1 102 2 99.5625 C9.23257833 81.02901803 9.26297544 60.53929017 1.45703125 42.234375 C-7.10539686 24.12983594 -21.60801941 9.66300993 -40.62963867 2.84179688 C-47.31472814 0.57881345 -54.01362056 -1.02684527 -61 -2 C-45.44520337 -14.9140986 -16.09250434 -7.75729836 0 0 Z " fill="#EB332E" transform="translate(260,245)"/>
<path d="M0 0 C5.45427285 5.45427285 7.24610161 10.63498124 7.2734375 18.1796875 C7.26570312 18.90414063 7.25796875 19.62859375 7.25 20.375 C7.26160156 21.45007813 7.26160156 21.45007813 7.2734375 22.546875 C7.25079698 28.81829858 6.6910305 35.18774836 2.75 40.3125 C-1.89051302 44.84754681 -5.44984099 46.19288548 -11.875 46.5 C-17.73660312 46.33273341 -21.74219933 45.0936445 -26 41 C-32.17494305 33.09679301 -31.88319081 22.56830156 -31 13 C-29.49160436 6.1734323 -26.87282704 1.79286746 -21 -2 C-13.94122691 -4.26523774 -6.38001481 -3.75294989 0 0 Z " fill="#171717" transform="translate(517,295)"/>
<path d="M0 0 C2.12219029 0.07030768 4.24460441 0.13417173 6.3671875 0.19140625 C11.54202765 0.34490492 16.70603486 0.58589378 21.875 0.875 C15.56611346 10.40293208 15.56611346 10.40293208 12.68359375 14.3125 C11.8639917 15.42564575 11.8639917 15.42564575 11.02783203 16.5612793 C10.46177246 17.32480713 9.89571289 18.08833496 9.3125 18.875 C8.71550293 19.68300049 8.11850586 20.49100098 7.50341797 21.32348633 C1.3865327 29.57814829 -4.8529042 37.73794549 -11.125 45.875 C-14.69974842 44.68341719 -15.33493587 43.60645942 -17.5234375 40.61328125 C-18.16796875 39.74123047 -18.8125 38.86917969 -19.4765625 37.97070312 C-20.14429688 37.05224609 -20.81203125 36.13378906 -21.5 35.1875 C-22.81883658 33.39084275 -24.13911719 31.59524448 -25.4609375 29.80078125 C-26.39631348 28.52001709 -26.39631348 28.52001709 -27.35058594 27.21337891 C-28.87662454 25.20231703 -30.46663972 23.34505306 -32.1640625 21.48046875 C-34.125 18.875 -34.125 18.875 -33.97363281 17.16186523 C-27.38537227 -0.59194275 -17.48572498 -1.00732981 0 0 Z " fill="#FCFCFC" transform="translate(1026.125,263.125)"/>
<path d="M0 0 C4.40678486 2.31936045 7.21963995 5.26969111 9.96875 9.3125 C10.46375 12.2825 10.46375 12.2825 10.96875 15.3125 C-0.58125 15.3125 -12.13125 15.3125 -24.03125 15.3125 C-22.89960222 8.52261334 -22.89960222 8.52261334 -19.71875 5.0625 C-19.12449219 4.39734375 -18.53023437 3.7321875 -17.91796875 3.046875 C-12.9254626 -1.54250953 -6.37311943 -2.15705581 0 0 Z " fill="#161616" transform="translate(878.03125,290.6875)"/>
</svg>
